<svg xmlns="http://www.w3.org/2000/svg" width="2048" height="2048"><path d="m304.575-.128 3.101-.005c3.429-.004 6.857-.001 10.286.002l7.482-.007c5.439-.004 10.878-.005 16.317-.004 8.142.002 16.285-.001 24.428-.006a78240.9 78240.9 0 0 1 41.635-.012c14.065 0 28.13-.003 42.196-.008l2.692-.001 10.853-.004c42.833-.016 85.666-.023 128.498-.028 21.33-.002 42.661-.006 63.992-.01a1514869.075 1514869.075 0 0 1 264.402-.03c70.574-.003 141.147-.018 211.72-.041a630892.573 630892.573 0 0 1 254.711-.042c32.469 0 64.937-.01 97.406-.025a141441.166 141441.166 0 0 1 111.715-.009l2.688.001c14.018.003 28.037-.005 42.055-.016 13.8-.011 27.601-.012 41.402 0 8.08.005 16.16.003 24.239-.011 6.017-.01 12.035-.004 18.052.008 2.406.003 4.81 0 7.216-.008 20.136-.065 40.1 1.478 59.839 5.634l3.074.636C1864.181 20.736 1931.854 59.34 1976 116a871.116 871.116 0 0 0 2.785 3.375c33.956 41.173 55.456 91.383 65.215 143.625l.553 2.92c4.778 26.623 4.02 53.607 3.965 80.55-.014 7.412-.004 14.824.006 22.236.018 13.847.018 27.694.007 41.54-.011 14.013-.014 28.026-.005 42.04l.001 2.691.007 10.855c.02 33.628.022 67.256.011 100.884v3.014l-.002 3.019a186092.476 186092.476 0 0 0-.007 97.284l.004 24.57c.004 22.892.006 45.783.007 68.675v3.158c.002 33.195-.003 66.39-.011 99.585l-.001 3.26-.014 52.42c-.02 69.295-.019 138.59 0 207.884l.015 52.394v3.259c.01 33.161.013 66.323.011 99.484v3.156a642302.94 642302.94 0 0 1-.012 99.253c-.005 30.38 0 60.76.01 91.14v3.013l.001 3.008a105048.695 105048.695 0 0 1-.022 114.105c-.008 13.97-.002 27.94.009 41.911.01 13.763.006 27.527-.012 41.29-.01 7.35-.014 14.702.001 22.053.167 87.363-19.145 168.373-78.522 235.349l-2.562 2.898c-11.002 12.213-22.457 23.988-35.438 34.102a871.116 871.116 0 0 0-3.375 2.785c-41.173 33.956-91.383 55.456-143.625 65.215l-2.92.553c-26.623 4.778-53.607 4.02-80.55 3.965-7.412-.014-14.824-.004-22.236.006-13.847.018-27.694.018-41.54.007-14.013-.011-28.026-.014-42.04-.005l-2.691.001-10.855.007c-33.628.02-67.256.022-100.884.011h-3.014l-3.019-.002a186092.476 186092.476 0 0 0-97.284-.007l-24.57.004c-22.892.004-45.783.006-68.675.007h-3.158c-33.195.002-66.39-.003-99.585-.011l-3.26-.001-52.42-.014c-69.295-.02-138.59-.019-207.884 0l-52.394.015h-3.259a318260.878 318260.878 0 0 1-102.64.011 642302.94 642302.94 0 0 1-99.253-.012c-30.38-.005-60.76 0-91.14.01h-3.013l-3.008.001a105048.695 105048.695 0 0 1-114.105-.022c-13.97-.008-27.94-.002-41.911.009-13.763.01-27.527.006-41.29-.012-7.35-.01-14.702-.014-22.053.001-98.931.189-184.259-26.973-255.599-97.584A203.964 203.964 0 0 1 72 1932a871.117 871.117 0 0 0-2.785-3.375C27.61 1878.177-.28 1809.296-.128 1743.425l-.005-3.101c-.004-3.429-.001-6.857.002-10.286l-.007-7.482c-.004-5.439-.005-10.878-.004-16.317.002-8.142-.001-16.285-.006-24.428a78240.9 78240.9 0 0 1-.012-41.635c0-14.065-.003-28.13-.008-42.196l-.001-2.692-.004-10.853c-.016-42.833-.023-85.666-.028-128.498-.002-21.33-.006-42.661-.01-63.992a1514869.075 1514869.075 0 0 1-.03-264.402c-.003-70.574-.018-141.147-.041-211.72a630892.573 630892.573 0 0 1-.042-254.711c0-32.469-.01-64.937-.025-97.406A141441.166 141441.166 0 0 1-.358 451.99l.001-2.688c.003-14.018-.005-28.037-.016-42.055-.011-13.8-.012-27.601 0-41.402.005-8.08.003-16.16-.011-24.239-.01-6.017-.004-12.035.008-18.052.003-2.406 0-4.81-.008-7.216-.065-20.137 1.48-40.1 5.634-59.839l.631-3.063C11.166 228.607 19.208 204.949 30 182l1.12-2.394C43.281 153.853 59.115 130.302 78 109l2.563-2.898C91.564 93.889 103.019 82.114 116 72a871.117 871.117 0 0 0 3.375-2.785C169.823 27.61 238.704-.28 304.575-.128Z" fill="#EDC53F"/><path d="m834.563 809.688 2.528.002c12.054.027 23.83.52 35.687 2.878 1.605.312 3.216.592 4.83.852 6.667 1.094 12.815 2.852 19.142 5.205l2.892 1.07c13.696 5.2 25.1 11.977 36.358 21.305l2.34 1.91c4.718 3.975 8.8 8.283 12.66 13.09l2.46 3.035c22.61 28.828 32.277 64.356 37.415 100.028l.314 2.145c2.923 20.313 3 40.653 2.996 61.14 0 2.797.007 5.594.02 8.39.274 56.884-5.917 119.14-44.205 164.262l-2.238 2.684c-22.068 25.463-54.829 38.414-87.762 42.316-3.458.17-6.913.211-10.375.238l-3.033.025c-2.122.014-4.243.024-6.364.032-2.124.012-4.247.032-6.37.062-39.812.558-77.791-9.871-107.167-37.697-31.1-30.525-43.56-76.529-47.691-118.66l-.249-2.466c-1.664-16.942-2.067-33.81-2.012-50.818.012-3.512.005-7.024-.007-10.536-.047-17.137.483-34.12 2.268-51.18l.23-2.197c.427-3.968.943-7.917 1.52-11.865l.508-3.496c1.793-11.692 4.48-23.078 7.742-34.442l.694-2.442c10.432-35.844 32.202-68.246 65.119-86.808 24.53-13.366 52.021-18.179 79.75-18.063ZM1621 813l2.335.422c31.276 5.695 64.956 20.917 83.665 47.578 10.76 16.383 14.186 32.09 14.24 51.582.01 2.084.041 4.168.072 6.252.174 21.896-6.456 42.735-21.562 58.854A126.024 126.024 0 0 1 1696 981l-2.48 2.148c-9.845 8.037-20.873 14.132-31.91 20.37a490.44 490.44 0 0 0-6.712 3.896C1652 1009 1652 1009 1650 1009c3.162 3.498 6.694 5.751 10.75 8.063 29.275 17.144 59.29 39.826 69.438 73.687A409.37 409.37 0 0 1 1732 1098l.91 3.531c6.473 28.661 1.592 57.634-13.91 82.469-2.807 3.856-5.812 7.455-9 11l-1.824 2.074c-17.054 18.238-41.597 28.317-65.176 34.926l-2.844.805c-6.04 1.61-12.122 2.78-18.281 3.82l-2.206.373c-8.955 1.454-17.83 2.16-26.9 2.205l-2.863.022c-39.265.226-39.265.226-55.906-3.225l-2.97-.586c-33.766-6.815-67.878-20.925-87.858-50.41-11.562-17.652-16.608-36.439-16.547-57.379l.002-2.139c.123-34.949 13.358-64.03 37.99-88.597 10.79-10.395 23.536-18.292 36.383-25.889l-3.375-1.984c-10.723-6.384-20.851-13.254-30.625-21.016l-1.625-1.28C1446.89 971.81 1440.535 950.65 1438 928c-1.755-27.881 1.547-52.14 20-74 21.046-23.652 50.757-34.642 81-41l2.604-.548c25.34-5.016 54.114-4.399 79.396.548ZM1243 820h84v272h53v69h-52v69h-79v-69h-205c0-77 0-77 16-98 5.289-7.19 5.289-7.19 10.57-14.387 3.957-5.357 8.062-10.594 12.172-15.833 4.89-6.254 9.603-12.627 14.294-19.03 4.417-6.027 8.937-11.96 13.512-17.87 9.001-11.658 17.877-23.404 26.588-35.281 4.387-5.974 8.874-11.858 13.412-17.718 8.312-10.767 16.544-21.592 24.577-32.568 5.087-6.951 10.315-13.773 15.63-20.55 4.135-5.292 8.154-10.657 12.12-16.076 7.567-10.337 15.338-20.515 23.125-30.687 2.981-3.894 5.96-7.79 8.938-11.688l2.099-2.737 1.928-2.524 1.707-2.23c1.38-1.786 1.38-1.786 2.328-3.821ZM568.207 844.457 571 847l2.012 1.762c18.038 16.692 29.24 43.643 30.207 67.91.41 16.56-1.293 33.459-6.219 49.328l-.655 2.117c-14.121 44.825-46.62 84.832-82.2 115.02-2.307 2.004-4.538 4.076-6.77 6.162a294.16 294.16 0 0 1-16.695 14.49c-2.813 2.32-5.498 4.742-8.18 7.211a222.476 222.476 0 0 1-11 9.5c-4.811 3.885-9.39 7.972-13.941 12.156a359.92 359.92 0 0 1-6.684 5.969l-1.887 1.656a264.347 264.347 0 0 1-4.445 3.75l-2.48 2.094-2.278 1.883c-2.265 2.188-2.265 2.188-2.785 6.992h181v75H320v-68c15.272-15.272 15.272-15.272 20.21-19.465 3.372-2.893 6.566-5.98 9.79-9.035 4.625-4.38 9.301-8.671 14.111-12.848 2.762-2.415 5.453-4.904 8.139-7.402 1.133-1.05 2.265-2.1 3.398-3.148l1.703-1.578c2.499-2.31 5.012-4.603 7.524-6.899 14.22-12.952 14.22-12.952 27.902-26.465 1.92-1.866 3.883-3.609 5.91-5.355 4.661-4.05 9.022-8.367 13.375-12.743l2.315-2.302c4.147-4.154 8.12-8.394 11.95-12.842 2.758-3.162 5.662-6.185 8.548-9.23C460.531 1026.66 465.89 1020.5 471 1014l3.273-4.082C494.38 984.671 514.588 955.647 512 922c-.793-4.044-2.07-7.37-4-11l-1.508-2.86c-5.987-10.302-14.32-16.193-25.492-20.14-24.372-5.356-49.447 3.192-70 16-10.13 6.844-18.868 14.326-25 25l-1.489-1.117a6957.207 6957.207 0 0 0-10.195-7.637c-10.595-7.924-21.112-15.948-31.607-24.004a9974.911 9974.911 0 0 0-4.608-3.535 3678.577 3678.577 0 0 1-4.306-3.306A407.9 407.9 0 0 0 321 880c.507-4.542 2.186-6.87 5.125-10.313l2.473-2.91L331 864l1.871-2.246c4.006-4.747 8.325-8.825 13.129-12.754l2.66-2.238c59.133-47.84 160.974-54.605 219.547-2.305Z" fill="#FDFBF3"/><path d="M871 895c23.744 17.827 30.213 49.293 34.203 76.969 7.27 53.358 8.812 126.198-23.398 172.164-9.89 12.647-22.74 20.89-38.805 22.867-16.632.89-31.267-1.997-44.25-13.25-19.475-18.76-26.634-43.717-30.75-69.75l-.513-3.24c-1.279-8.467-2.086-16.902-2.612-25.447l-.126-2.042c-1.454-24.076-1.729-48.306 1.251-72.271l.309-2.709c3.255-28.558 9.259-63.11 33.132-82.248 20.81-15.09 50.352-16.413 71.559-1.043ZM1593 1046.938l2.255 1.213c21.446 11.802 39.145 27.943 48.745 50.849l1.027 2.418c4.056 11.755 4.03 28.556-.71 40.05-7.286 14.01-17.998 21.822-32.844 26.688-24.116 7.207-53.659 6.927-76.222-5.096-12.995-7.296-19.805-15.694-24.251-30.06l-1-3c-.417-9.093-.596-18.202 2-27l.777-2.66c8.31-25.357 31.147-40.982 53.743-52.715a726.23 726.23 0 0 1 4.543-2.25l2.127-1.077c7.658-3.626 12.75-1.184 19.81 2.64ZM1248 931h1v160h-122c1.728-4.321 2.784-6.206 5.688-9.563 4.428-5.276 8.575-10.723 12.687-16.25 4.775-6.407 9.597-12.764 14.56-19.028 5.27-6.659 10.4-13.423 15.55-20.175 2.164-2.834 4.34-5.66 6.515-8.484 3.844-4.992 7.674-9.994 11.5-15a8263.563 8263.563 0 0 1 18.883-24.594c2.54-3.3 5.08-6.603 7.617-9.906l1.464-1.905c1.576-2.051 3.15-4.104 4.724-6.158l1.617-2.11c3.135-4.1 6.24-8.22 9.324-12.358l2.08-2.79c1.346-1.808 2.69-3.618 4.03-5.431l1.84-2.47 1.637-2.212L1248 931ZM1576.804 880.588a486.2 486.2 0 0 0 7.376.04c16.52.073 33.302 1.21 45.82 13.372 7.314 9.057 8.994 17.475 8 29-4.488 20.258-19.506 36.06-36.55 46.957A400.075 400.075 0 0 1 1588 978l-3.164 1.879c-4.057 1.604-6.649 1.03-10.628-.624-2.045-.96-4.032-1.995-6.02-3.068l-2.22-1.186c-19.492-10.706-39.153-24.978-46.597-46.849-1.727-10.017-1.403-19.745 3.8-28.632 8.342-11.497 20.996-15.552 34.42-18.145 6.362-.99 12.792-.886 19.213-.787Z" fill="#EDC53F"/></svg>